<svg xmlns="http://www.w3.org/2000/svg" width="97" height="97" viewBox="0 0 97 97">
  <g id="Group_22419" data-name="Group 22419" transform="translate(-1833 -1793)">
    <circle id="Ellipse_22" data-name="Ellipse 22" cx="48.5" cy="48.5" r="48.5" transform="translate(1833 1793)" fill="#f9fafc"/>
    <g id="Group_21893" data-name="Group 21893" transform="translate(-28.942 1.826)">
      <g id="chat_plus" data-name="chat plus" transform="translate(1889.888 1821.176)">
        <path id="Rectangle_7" data-name="Rectangle 7" d="M22.61,0H18.5A18.5,18.5,0,0,0,0,18.5V28.776A8.222,8.222,0,0,0,8.222,37H22.61a18.5,18.5,0,0,0,0-37Z" fill="#cc3521"/>
      </g>
      <path id="Union" d="M8.934,1.489a1.489,1.489,0,0,0-2.978,0V5.956H1.489a1.489,1.489,0,0,0,0,2.978H5.956V13.4a1.489,1.489,0,0,0,2.978,0V8.934H13.4a1.489,1.489,0,0,0,0-2.978H8.934Z" transform="matrix(0.719, 0.695, -0.695, 0.719, 1910.259, 1828.988)" fill="#fff"/>
    </g>
  </g>
</svg>
