<svg id="wallet" xmlns="http://www.w3.org/2000/svg" width="26.041" height="26.041" viewBox="0 0 26.041 26.041">
  <path id="Rectangle_832" data-name="Rectangle 832" d="M0,20.833H20.833a5.208,5.208,0,0,0,5.208-5.208V5.208A5.208,5.208,0,0,0,20.833,0H5.208A5.208,5.208,0,0,0,0,5.208Z" transform="translate(26.041 26.041) rotate(180)" fill="#375486" opacity="0.4"/>
  <path id="Rectangle_833" data-name="Rectangle 833" d="M18.229,5.208A5.208,5.208,0,0,0,13.021,0H5.208A5.208,5.208,0,0,0,0,5.208Z" transform="translate(7.812)" fill="#375486"/>
  <path id="Rectangle_834" data-name="Rectangle 834" d="M0,7.812H5.208V2.6A2.6,2.6,0,0,0,0,2.6Z" transform="translate(7.812 13.021) rotate(90)" fill="#375486"/>
</svg>
